<svg width="137" height="19" viewBox="0 0 137 19" fill="none" xmlns="http://www.w3.org/2000/svg">
<path d="M0.728 1.2V18H6.896C11.744 18 14.84 14.712 14.84 9.6C14.84 4.464 11.744 1.2 6.896 1.2H0.728ZM3.536 15.336V3.864H6.584C9.776 3.864 11.888 6.12 11.888 9.6C11.888 13.08 9.776 15.336 6.584 15.336H3.536ZM21.7422 1.2L15.5503 18H18.6943L19.9663 14.304H27.1183L28.3903 18H31.5103L25.3183 1.2H21.7422ZM20.7583 11.664L23.5423 3.504L26.3263 11.664H20.7583ZM40.7439 18.36C45.5679 18.36 48.9279 14.856 48.9279 9.6C48.9279 4.344 45.5679 0.839999 40.7439 0.839999C35.8959 0.839999 32.5359 4.344 32.5359 9.6C32.5359 14.856 35.8959 18.36 40.7439 18.36ZM40.7439 15.624C37.4799 15.624 35.4879 13.128 35.4879 9.6C35.4879 6.072 37.4799 3.576 40.7439 3.576C43.9839 3.576 45.9759 6.072 45.9759 9.6C45.9759 13.128 43.9839 15.624 40.7439 15.624ZM57.2827 1.2V18H63.4507C68.2987 18 71.3947 14.712 71.3947 9.6C71.3947 4.464 68.2987 1.2 63.4507 1.2H57.2827ZM60.0907 15.336V3.864H63.1387C66.3307 3.864 68.4427 6.12 68.4427 9.6C68.4427 13.08 66.3307 15.336 63.1387 15.336H60.0907ZM80.8816 18H86.5936V15.36H83.3056L82.1056 11.808C85.2496 11.04 86.6176 9.432 86.6176 6.624C86.6176 3.024 84.3376 1.2 80.2096 1.2H73.9936V18H76.8016V12.096H79.1056L80.8816 18ZM80.0416 3.864C82.4896 3.864 83.6656 4.68 83.6656 6.624C83.6656 8.664 82.3936 9.456 79.9216 9.456H76.8016V3.864H80.0416ZM89.228 1.2V18H99.884V15.336H92.036V10.584H99.38V7.944H92.036V3.864H99.884V1.2H89.228ZM107.453 1.2L101.261 18H104.405L105.677 14.304H112.829L114.101 18H117.221L111.029 1.2H107.453ZM106.469 11.664L109.253 3.504L112.037 11.664H106.469ZM119.111 18H121.919V5.376L127.031 18H129.071L134.183 5.376V18H136.991V1.2H133.199L128.039 13.896L122.903 1.2H119.111V18Z" fill="white"/>
</svg>
