<svg width="64" height="64" viewBox="0 0 64 64" fill="none" xmlns="http://www.w3.org/2000/svg">
<rect width="64" height="64" rx="16" fill="#021230"/>
<path d="M11.3948 28.2157C9.98304 28.2157 9.6301 29.1765 10.3948 30.2745L14.787 36.5098C15.434 37.4118 16.3752 37.3922 17.0026 36.5098L21.3948 30.2549C22.1399 29.1765 21.787 28.2157 20.3948 28.2157H17.5517C19.2575 20.8039 25.8458 15.3529 33.8066 15.3529C43.0615 15.3529 50.4732 22.7451 50.4732 32C50.4732 41.2549 43.0615 48.7059 33.8066 48.6667C28.2183 48.6471 23.3164 45.9412 20.3164 41.7647C19.7085 40.9608 18.787 40.7059 17.9634 41.1961C17.1791 41.6863 16.9634 42.7647 17.6301 43.6275C21.3556 48.6275 27.1987 52 33.8066 52C44.7281 52 53.8066 42.9216 53.8066 32C53.8066 21.0588 44.7281 12 33.8066 12C24.1595 12 15.9634 19.0392 14.1595 28.2157H11.3948Z" fill="#713DFF"/>
<g filter="url(#filter0_d_15_73)">
<path d="M32.6302 43.6471C32.6302 44.2942 33.1596 44.8432 33.8066 44.8432C34.4537 44.8432 35.0027 44.2942 35.0027 43.6471V41.6667C38.5517 41.2549 41.0027 39.0785 41.0027 36.1373C41.0027 33.3922 39.4929 31.9216 35.7478 31.0197L35.0027 30.8236V25.0785C36.2772 25.4118 37.1007 26.2746 37.6301 27.6863C37.9439 28.3726 38.4733 28.6863 39.0223 28.6863C40.0419 28.6863 40.6301 27.7844 40.2772 26.6079C39.8066 24.804 37.9439 22.902 35.0027 22.4314V20.3726C35.0027 19.7255 34.4537 19.1765 33.8066 19.1765C33.1596 19.1765 32.6302 19.7255 32.6302 20.3726V22.3726C29.1988 22.7255 26.8066 24.902 26.8066 27.8236C26.8066 30.5098 28.5321 32.1569 32.1203 33L32.6302 33.1177V39.0589C31.0223 38.804 29.9831 37.9412 29.3949 36.4118C29.1007 35.7451 28.5713 35.4314 28.0223 35.4314C27.0223 35.4314 26.4929 36.2353 26.7086 37.4118C27.1203 39.5687 29.4341 41.3334 32.6302 41.6667V43.6471ZM29.8262 27.7059C29.8262 26.3138 30.9243 25.2942 32.6302 25V30.2353C30.6694 29.7059 29.8262 28.9412 29.8262 27.7059ZM37.9439 36.353C37.9439 37.7451 36.8262 38.7451 35.0027 39.0589V33.6863C37.1203 34.1765 37.9439 34.9216 37.9439 36.353Z" fill="#008FFF"/>
</g>
<rect x="0.5" y="0.5" width="63" height="63" rx="15.5" stroke="white" stroke-opacity="0.2"/>
<defs>
<filter id="filter0_d_15_73" x="17.6609" y="12.1765" width="32.3418" height="43.6666" filterUnits="userSpaceOnUse" color-interpolation-filters="sRGB">
<feFlood flood-opacity="0" result="BackgroundImageFix"/>
<feColorMatrix in="SourceAlpha" type="matrix" values="0 0 0 0 0 0 0 0 0 0 0 0 0 0 0 0 0 0 127 0" result="hardAlpha"/>
<feOffset dy="2"/>
<feGaussianBlur stdDeviation="4.5"/>
<feComposite in2="hardAlpha" operator="out"/>
<feColorMatrix type="matrix" values="0 0 0 0 0 0 0 0 0 0.560784 0 0 0 0 1 0 0 0 1 0"/>
<feBlend mode="normal" in2="BackgroundImageFix" result="effect1_dropShadow_15_73"/>
<feBlend mode="normal" in="SourceGraphic" in2="effect1_dropShadow_15_73" result="shape"/>
</filter>
</defs>
</svg>
