<svg width="64" height="64" viewBox="0 0 64 64" fill="none" xmlns="http://www.w3.org/2000/svg">
<rect width="64" height="64" rx="16" fill="#021230"/>
<path d="M31.2389 20.5401C31.4669 20.5401 31.5897 20.3998 31.6247 20.1894C32.1508 17.3485 32.0982 17.2082 35.1495 16.6646C35.3599 16.612 35.5002 16.4893 35.5002 16.2613C35.5002 16.0509 35.3599 15.9106 35.1495 15.8755C32.0982 15.3319 32.1508 15.1916 31.6247 12.3507C31.5897 12.1403 31.4669 12 31.2389 12C31.011 12 30.8882 12.1403 30.8531 12.3507C30.327 15.1916 30.3797 15.3319 27.3284 15.8755C27.1004 15.9106 26.9776 16.0509 26.9776 16.2613C26.9776 16.4893 27.1004 16.612 27.3284 16.6646C30.3797 17.2082 30.327 17.3485 30.8531 20.1894C30.8882 20.3998 31.011 20.5401 31.2389 20.5401ZM22.7514 32.605C23.0846 32.605 23.3126 32.377 23.3477 32.0614C23.979 27.3792 24.1368 27.3792 28.9768 26.4498C29.2749 26.3972 29.5028 26.1868 29.5028 25.8536C29.5028 25.5379 29.2749 25.31 28.9768 25.2749C24.1368 24.591 23.9614 24.4331 23.3477 19.6808C23.3126 19.3477 23.0846 19.1197 22.7514 19.1197C22.4358 19.1197 22.2078 19.3477 22.1552 19.6984C21.594 24.3805 21.331 24.363 16.5261 25.2749C16.228 25.3275 16 25.5379 16 25.8536C16 26.2043 16.228 26.3972 16.5962 26.4498C21.3661 27.2214 21.594 27.3441 22.1552 32.0263C22.2078 32.377 22.4358 32.605 22.7514 32.605Z" fill="#713DFF"/>
<g filter="url(#filter0_d_15_47)">
<path d="M34.6411 52C35.097 52 35.4302 51.6669 35.5179 51.1934C36.7629 41.6011 38.1132 40.1281 47.6178 39.0759C48.1088 39.0233 48.442 38.6726 48.442 38.1991C48.442 37.7431 48.1088 37.3924 47.6178 37.3398C38.1132 36.2876 36.7629 34.8146 35.5179 25.2048C35.4302 24.7313 35.097 24.4156 34.6411 24.4156C34.1851 24.4156 33.8519 24.7313 33.7818 25.2048C32.5367 34.8146 31.1689 36.2876 21.6818 37.3398C21.1733 37.3924 20.8401 37.7431 20.8401 38.1991C20.8401 38.6726 21.1733 39.0233 21.6818 39.0759C31.1514 40.321 32.4666 41.6011 33.7818 51.1934C33.8519 51.6669 34.1851 52 34.6411 52Z" fill="#008FFF"/>
</g>
<rect x="0.5" y="0.5" width="63" height="63" rx="15.5" stroke="white" stroke-opacity="0.2"/>
<defs>
<filter id="filter0_d_15_47" x="11.8401" y="17.4156" width="45.6018" height="45.5844" filterUnits="userSpaceOnUse" color-interpolation-filters="sRGB">
<feFlood flood-opacity="0" result="BackgroundImageFix"/>
<feColorMatrix in="SourceAlpha" type="matrix" values="0 0 0 0 0 0 0 0 0 0 0 0 0 0 0 0 0 0 127 0" result="hardAlpha"/>
<feOffset dy="2"/>
<feGaussianBlur stdDeviation="4.5"/>
<feComposite in2="hardAlpha" operator="out"/>
<feColorMatrix type="matrix" values="0 0 0 0 0 0 0 0 0 0.560784 0 0 0 0 1 0 0 0 1 0"/>
<feBlend mode="normal" in2="BackgroundImageFix" result="effect1_dropShadow_15_47"/>
<feBlend mode="normal" in="SourceGraphic" in2="effect1_dropShadow_15_47" result="shape"/>
</filter>
</defs>
</svg>
