<svg width="64" height="64" viewBox="0 0 64 64" fill="none" xmlns="http://www.w3.org/2000/svg">
<rect width="64" height="64" rx="16" fill="#021230"/>
<path d="M28.9825 28.9516C33.3347 28.9516 36.8823 25.0749 36.8823 20.357C36.8823 15.6756 33.3713 12 28.9825 12C24.6486 12 21.0827 15.7487 21.0827 20.3935C21.101 25.0932 24.6486 28.9516 28.9825 28.9516ZM28.9825 26.1904C26.3126 26.1904 24.0268 23.6302 24.0268 20.3935C24.0268 17.2117 26.2761 14.7613 28.9825 14.7613C31.7255 14.7613 33.9381 17.1751 33.9381 20.357C33.9381 23.5937 31.6889 26.1904 28.9825 26.1904ZM17.4985 45.8667H33.5358C33.4078 45.2998 33.353 44.6963 33.353 44.0015V43.1054H16.6207C16.1453 43.1054 15.9441 42.9774 15.9441 42.5934C15.9441 39.5944 20.5889 33.9804 28.9825 33.9804C31.0123 33.9804 32.8409 34.3462 34.377 34.9313C34.8525 34.0536 35.6205 33.3221 36.6811 32.8467C34.505 31.8592 31.9266 31.2192 28.9825 31.2192C19.0529 31.2192 13 38.1498 13 42.9408C13 44.9524 14.4446 45.8667 17.4985 45.8667ZM35.8582 44.0746C35.8582 47.5856 37.9063 48.8657 42.8803 51.7732C43.3192 52.0475 44.014 52.1024 44.5809 51.7732C49.5549 48.8474 51.6213 47.5856 51.6213 44.0746V37.4914C51.6213 36.4308 51.219 35.7359 50.1401 35.2788C49.0611 34.8399 45.6781 33.633 44.6358 33.2673C44.0323 33.0661 43.3557 33.0661 42.6791 33.3404C41.7831 33.6696 38.4001 34.8399 37.3394 35.2788C36.2605 35.7359 35.8582 36.4308 35.8582 37.4914V44.0746ZM42.6426 47.5856C42.3317 47.5856 41.966 47.4576 41.7282 47.1833L38.6195 43.8003C38.4184 43.5626 38.3269 43.2334 38.3269 42.9591C38.3269 42.3191 38.8207 41.8071 39.4607 41.8071C39.8447 41.8071 40.1373 41.9899 40.3384 42.2094L42.5877 44.6415L47.0496 38.4606C47.2508 38.1498 47.5982 37.9486 48.0188 37.9486C48.6223 37.9486 49.1709 38.4423 49.1709 39.0824C49.1709 39.2835 49.0794 39.5395 48.9149 39.759L43.5935 47.1467C43.3923 47.4028 43.0449 47.5856 42.6426 47.5856Z" fill="#713DFF"/>
<g filter="url(#filter0_d_15_67)">
<path d="M35.8582 44.0746C35.8582 47.5857 37.9063 48.8657 42.8802 51.7733C43.3191 52.0476 44.014 52.1024 44.5809 51.7733C49.5548 48.8474 51.6212 47.5857 51.6212 44.0746V37.4915C51.6212 36.4309 51.2189 35.736 50.14 35.2788C49.0611 34.8399 45.6781 33.633 44.6357 33.2673C44.0323 33.0661 43.3557 33.0661 42.6791 33.3404C41.783 33.6696 38.4 34.8399 37.3394 35.2788C36.2605 35.736 35.8582 36.4309 35.8582 37.4915V44.0746ZM42.6425 47.5857C42.3316 47.5857 41.9659 47.4577 41.7281 47.1834L38.6194 43.8003C38.4183 43.5626 38.3268 43.2335 38.3268 42.9592C38.3268 42.3191 38.8206 41.8071 39.4606 41.8071C39.8446 41.8071 40.1372 41.99 40.3384 42.2094L42.5876 44.6415L47.0495 38.4607C47.2507 38.1498 47.5981 37.9486 48.0187 37.9486C48.6222 37.9486 49.1708 38.4424 49.1708 39.0824C49.1708 39.2836 49.0794 39.5396 48.9148 39.759L43.5934 47.1468C43.3922 47.4028 43.0448 47.5857 42.6425 47.5857Z" fill="#008FFF"/>
</g>
<rect x="0.5" y="0.5" width="63" height="63" rx="15.5" stroke="white" stroke-opacity="0.2"/>
<defs>
<filter id="filter0_d_15_67" x="26.8582" y="26.1245" width="33.7629" height="36.8755" filterUnits="userSpaceOnUse" color-interpolation-filters="sRGB">
<feFlood flood-opacity="0" result="BackgroundImageFix"/>
<feColorMatrix in="SourceAlpha" type="matrix" values="0 0 0 0 0 0 0 0 0 0 0 0 0 0 0 0 0 0 127 0" result="hardAlpha"/>
<feOffset dy="2"/>
<feGaussianBlur stdDeviation="4.5"/>
<feComposite in2="hardAlpha" operator="out"/>
<feColorMatrix type="matrix" values="0 0 0 0 0 0 0 0 0 0.560784 0 0 0 0 1 0 0 0 1 0"/>
<feBlend mode="normal" in2="BackgroundImageFix" result="effect1_dropShadow_15_67"/>
<feBlend mode="normal" in="SourceGraphic" in2="effect1_dropShadow_15_67" result="shape"/>
</filter>
</defs>
</svg>
