<svg width="64" height="64" viewBox="0 0 64 64" fill="none" xmlns="http://www.w3.org/2000/svg">
<rect width="64" height="64" rx="16" fill="#021230"/>
<path d="M32 52C42.9412 52 52 42.9216 52 32C52 21.0588 42.9216 12 31.9804 12C21.0588 12 12 21.0588 12 32C12 42.9216 21.0784 52 32 52ZM32 48.6667C22.7451 48.6667 15.3529 41.2549 15.3529 32C15.3529 22.7451 22.7255 15.3333 31.9804 15.3333C41.2353 15.3333 48.6667 22.7451 48.6667 32C48.6667 41.2549 41.2549 48.6667 32 48.6667Z" fill="#713DFF"/>
<g filter="url(#filter0_d_15_248)">
<path d="M21.3334 39.3921C21.3334 40.3137 21.9412 40.9215 22.8628 40.9215H41.5491C42.1373 40.9215 42.6471 40.4313 42.6471 39.8431C42.6471 39.2549 42.1373 38.7647 41.5491 38.7647H23.5295C23.4902 38.7647 23.5098 38.7451 23.5098 38.7255V34.5882L27.3334 30.7451C27.451 30.6078 27.5491 30.6078 27.6471 30.7451L31.0785 34.2549C31.5687 34.7058 32.0393 34.9411 32.5883 34.9411C33.1569 34.9411 33.6667 34.7058 34.1177 34.2549L37.8236 30.4706L39.2157 31.9019C39.7059 32.3921 40.4118 32.1176 40.6079 31.4117L42.0393 25.7647C42.2157 25.1372 41.6275 24.5882 40.9804 24.7451L35.3726 26.1372C34.6667 26.3137 34.3726 27.0784 34.8628 27.5294L36.2745 28.9411L32.7451 32.4902C32.6471 32.6274 32.5687 32.6274 32.4706 32.5098L29 28.9411C28.5491 28.4706 28.0589 28.2549 27.4902 28.2549C26.902 28.2549 26.4314 28.4706 25.9804 28.9411L23.5098 31.4706V23.5882C23.5098 23 23 22.5098 22.4118 22.5098C21.8236 22.5098 21.3334 23 21.3334 23.5882V39.3921Z" fill="#008FFF"/>
</g>
<rect x="0.5" y="0.5" width="63" height="63" rx="15.5" stroke="white" stroke-opacity="0.2"/>
<defs>
<filter id="filter0_d_15_248" x="12.3334" y="15.5098" width="39.3137" height="36.4117" filterUnits="userSpaceOnUse" color-interpolation-filters="sRGB">
<feFlood flood-opacity="0" result="BackgroundImageFix"/>
<feColorMatrix in="SourceAlpha" type="matrix" values="0 0 0 0 0 0 0 0 0 0 0 0 0 0 0 0 0 0 127 0" result="hardAlpha"/>
<feOffset dy="2"/>
<feGaussianBlur stdDeviation="4.5"/>
<feComposite in2="hardAlpha" operator="out"/>
<feColorMatrix type="matrix" values="0 0 0 0 0 0 0 0 0 0.560784 0 0 0 0 1 0 0 0 1 0"/>
<feBlend mode="normal" in2="BackgroundImageFix" result="effect1_dropShadow_15_248"/>
<feBlend mode="normal" in="SourceGraphic" in2="effect1_dropShadow_15_248" result="shape"/>
</filter>
</defs>
</svg>
